<svg width="623" height="219" viewBox="0 0 623 219" fill="none" xmlns="http://www.w3.org/2000/svg">
<path d="M3 216.303C14.8333 172.137 56.2 99.4032 127 161.803C215.5 239.803 245.5 175.803 266 129.303C286.5 82.8032 341.5 7.80318 402.5 92.3032C463.5 176.803 506 156.303 530.5 112.803C555 69.3032 591.5 82.8032 621.5 92.3032" stroke="#33404F" stroke-width="3" stroke-linecap="round" stroke-dasharray="10 10"/>
<path d="M1.5 217.5C9.16667 161.667 44.7 64.4 125.5 122C226.5 194 271.5 179 294.5 145C317.5 111 365 38.0001 434.5 84.0001C504 130 521.5 91.5 538 66C554.5 40.5 569.5 32 613 58" stroke="#00DDA3" stroke-width="3" stroke-linecap="round" stroke-dasharray="10 10"/>
<circle cx="340" cy="55" r="13" fill="#33404F"/>
<circle cx="567" cy="43" r="13" fill="#00DDA3"/>
<path d="M304.477 31.9922V30.0732C308.769 29.707 311.244 27.4658 311.244 23.877C311.244 20.8447 309.516 18.9844 305.839 18.0908L304.477 17.7832V11.4697C306.41 11.7041 307.729 12.9639 307.787 14.5752H310.849C310.761 11.3086 308.271 8.99414 304.477 8.65723V6.63574H302.47V8.65723C298.515 9.02344 296.112 11.2646 296.112 14.6484C296.112 17.5049 297.899 19.4678 301.166 20.3027L302.47 20.6396V27.3193C300.287 27.0703 298.881 25.8545 298.734 24.1113H295.629C295.644 27.5098 298.28 29.8096 302.47 30.0879V31.9922H304.477ZM308.124 24.2139C308.124 26.0742 306.791 27.2168 304.477 27.3486V21.0205C306.967 21.5186 308.124 22.5293 308.124 24.2139ZM299.247 14.3848C299.247 12.7881 300.595 11.5576 302.47 11.4551V17.3584C300.36 16.9336 299.247 15.8936 299.247 14.3848ZM320.751 30H324.032V8.8623H320.766L315.199 12.7881V16.1426L320.502 12.3926H320.751V30ZM331.078 30H334.521L343.72 11.8359V8.8623H329.32V11.7773H340.395V12.0117L331.078 30ZM355.731 30H358.896V25.9131H361.811V22.9834H358.896V8.8623H354.223C350.458 14.502 347.309 19.4092 345.419 22.8662V25.9131H355.731V30ZM348.568 22.8516C351.059 18.5303 353.49 14.7803 355.585 11.748H355.775V23.0566H348.568V22.8516Z" fill="#33404F"/>
<path d="M540.424 30.9922V29.0732C544.716 28.707 547.191 26.4658 547.191 22.877C547.191 19.8447 545.463 17.9844 541.786 17.0908L540.424 16.7832V10.4697C542.357 10.7041 543.676 11.9639 543.734 13.5752H546.796C546.708 10.3086 544.218 7.99414 540.424 7.65723V5.63574H538.417V7.65723C534.462 8.02344 532.06 10.2646 532.06 13.6484C532.06 16.5049 533.847 18.4678 537.113 19.3027L538.417 19.6396V26.3193C536.234 26.0703 534.828 24.8545 534.682 23.1113H531.576C531.591 26.5098 534.228 28.8096 538.417 29.0879V30.9922H540.424ZM544.071 23.2139C544.071 25.0742 542.738 26.2168 540.424 26.3486V20.0205C542.914 20.5186 544.071 21.5293 544.071 23.2139ZM535.194 13.3848C535.194 11.7881 536.542 10.5576 538.417 10.4551V16.3584C536.308 15.9336 535.194 14.8936 535.194 13.3848ZM561.356 29H564.521V24.9131H567.436V21.9834H564.521V7.8623H559.848C556.083 13.502 552.934 18.4092 551.044 21.8662V24.9131H561.356V29ZM554.193 21.8516C556.684 17.5303 559.115 13.7803 561.21 10.748H561.4V22.0566H554.193V21.8516ZM578.759 29.5127C583.314 29.5127 586.405 26.5391 586.405 22.1592C586.405 17.999 583.578 15.0693 579.564 15.0693C577.558 15.0693 576.063 15.7432 575.097 16.9883H574.848L575.404 10.792H585.175V7.8623H572.841L571.728 19.9619H574.73C575.551 18.5996 577.016 17.7939 578.832 17.7939C581.41 17.7939 583.197 19.5957 583.197 22.2471C583.197 24.8838 581.425 26.627 578.788 26.627C576.474 26.627 574.76 25.2646 574.511 23.2139H571.391C571.581 26.9199 574.555 29.5127 578.759 29.5127ZM595.429 29H598.71V7.8623H595.443L589.877 11.7881V15.1426L595.18 11.3926H595.429V29Z" fill="#00DDA3"/>
</svg>
