<?xml version="1.0" encoding="iso-8859-1"?>
<!-- Uploaded to: SVG Repo, www.svgrepo.com, Generator: SVG Repo Mixer Tools -->
<svg fill="#000000" height="800px" width="800px" version="1.1" id="Capa_1" xmlns="http://www.w3.org/2000/svg" xmlns:xlink="http://www.w3.org/1999/xlink" 
	 viewBox="0 0 490 490" xml:space="preserve">
<g id="Black_16_">
	<path d="M245,0c-16.369,0-29.875,12.281-32.095,28.068H0v30.625h28.711v302.422H0v30.625h147.965L112.088,490h30.625l14.914-40.839
		h174.746L347.287,490h30.625l-35.862-98.26H490v-30.625h-28.711V58.693H490V28.068H277.095C274.875,12.281,261.369,0,245,0z
		 M321.195,418.537h-152.39l9.785-26.797h132.836L321.195,418.537z M430.664,361.115H59.336V58.693h371.328V361.115z"/>
	<path d="M247.19,240.789h19.294c3.552,17.64,10.902,32.355,22.019,44.177c16.323,17.364,37.179,26.047,62.536,26.047
		c15.037,0,28.19-2.818,39.476-8.468v-39.874c-9.892,10.244-23.183,15.374-39.874,15.374c-13.888,0-25.189-5.13-33.887-15.374
		c-4.517-5.298-7.855-12.602-10.03-21.897h59.428l4.165-20.182h-66.334c-0.168-3.307-0.26-6.477-0.26-9.524
		c0-3.139,0.046-5.696,0.138-7.687h70.101l4.165-20.197h-71.663c2.083-8.59,5.589-15.772,10.55-21.499
		c8.774-10.167,20.228-15.236,34.392-15.236s24.944,3.69,32.309,11.071l7.687-36.107c-10.78-5.298-23.459-7.947-38.036-7.947
		c-26.766,0-48.357,8.774-64.757,26.322c-10.872,11.653-18.115,26.108-21.759,43.396h-15.511l-4.165,20.197h17.074
		c-0.184,3.047-0.276,6.569-0.276,10.55c0,2.358,0.046,4.563,0.138,6.661h-12.771L247.19,240.789z"/>
	<path d="M149.986,218.8v51.419c-4.425-2.129-8.422-5.574-12.02-10.305c-3.598-4.732-6.064-10.382-7.365-16.936l-32.034,3.43
		c2.465,16.109,8.1,28.573,16.936,37.424c8.835,8.836,20.335,14.103,34.484,15.833v22.341h17.778v-22.953
		c15.956-2.281,28.405-8.498,37.363-18.651c8.958-10.152,13.429-22.616,13.429-37.424c0-13.261-3.568-24.117-10.673-32.585
		c-7.12-8.468-20.488-15.358-40.134-20.687v-47.943c7.932,3.43,12.847,9.984,14.715,19.631l31.054-4.058
		c-2.128-12.265-7.029-22.065-14.715-29.385c-7.702-7.319-18.038-11.76-31.054-13.322v-12.128h-17.762v12.143
		c-14.072,1.378-25.342,6.63-33.81,15.772c-8.468,9.111-12.709,20.381-12.709,33.795c0,13.261,3.752,24.515,11.239,33.81
		C122.194,207.301,133.954,214.237,149.986,218.8z M167.779,224.083c7.365,2.128,12.663,5.175,15.894,9.141
		c3.231,3.966,4.854,8.698,4.854,14.164c0,6.14-1.929,11.469-5.773,16.017c-3.843,4.533-8.835,7.381-14.976,8.529V224.083z
		 M138.456,149.741c2.863-3.951,6.707-6.722,11.53-8.361v42.462c-5.329-2.297-9.295-5.298-11.913-9.034
		c-2.603-3.706-3.92-7.733-3.92-12.082C134.153,157.994,135.577,153.661,138.456,149.741z"/>
</g>
</svg>