<?xml version="1.0" encoding="iso-8859-1"?>
<!-- Uploaded to: SVG Repo, www.svgrepo.com, Generator: SVG Repo Mixer Tools -->
<svg fill="#000000" height="800px" width="800px" version="1.1" id="Capa_1" xmlns="http://www.w3.org/2000/svg" xmlns:xlink="http://www.w3.org/1999/xlink" 
	 viewBox="0 0 490 490" xml:space="preserve">
<g id="Black_41_">
	<path d="M137.812,0c-16.844,0-30.625,13.781-30.625,30.625v428.75c0,16.844,13.781,30.625,30.625,30.625h214.375
		c16.844,0,30.625-13.781,30.625-30.625V30.625C382.813,13.781,369.031,0,352.187,0H137.812z M352.187,51.496v331.332H137.812
		V51.496H352.187z M137.812,459.375v-45.938h214.375v45.938H137.812z"/>
	<circle cx="245" cy="436.376" r="17.87"/>
	<path d="M202.707,244.005c6.799,0,12.924-2.618,17.64-6.799l41.237,25.541c-0.597,2.22-1.011,4.502-1.011,6.921
		c0,14.761,11.959,26.72,26.72,26.72c14.761,0,26.72-11.959,26.72-26.72c0-14.761-11.959-26.72-26.72-26.72
		c-6.799,0-12.924,2.619-17.64,6.784l-41.237-25.541c0.597-2.22,1.011-4.502,1.011-6.906c0-2.404-0.413-4.701-1.011-6.921
		l41.237-25.541c4.716,4.18,10.841,6.799,17.64,6.799c14.761,0,26.72-11.959,26.72-26.72s-11.959-26.72-26.72-26.72
		c-14.761,0-26.72,11.959-26.72,26.72c0,2.404,0.413,4.686,1.011,6.906l-41.237,25.541c-4.716-4.18-10.841-6.783-17.64-6.783
		c-14.761,0-26.72,11.959-26.72,26.72C175.987,232.046,187.961,244.005,202.707,244.005z"/>
</g>
</svg>