<?xml version="1.0" encoding="iso-8859-1"?>
<!-- Uploaded to: SVG Repo, www.svgrepo.com, Generator: SVG Repo Mixer Tools -->
<svg fill="#000000" version="1.1" id="Capa_1" xmlns="http://www.w3.org/2000/svg" xmlns:xlink="http://www.w3.org/1999/xlink" 
	 viewBox="0 0 490 490" xml:space="preserve">
<g id="Black_20_">
	<path d="M308.021,281.996H182.148v73.441h-13.751v15.313h153.405v-15.313h-13.782V281.996z M292.707,355.437h-20.351v-58.128
		h20.351V355.437z M257.044,355.437h-23.919v-58.128h23.919V355.437z M197.461,297.309h20.351v58.128h-20.351V297.309z"/>
	<polygon points="245.084,211.021 178.733,265.152 311.435,265.152 	"/>
	<path d="M15.175,428.756h459.65c8.346,0,15.175-6.83,15.175-15.175V76.42c0.015-8.346-6.814-15.175-15.175-15.175H15.175
		C6.83,61.244,0,68.074,0,76.42v337.146C0,421.926,6.83,428.756,15.175,428.756z M30.626,91.87h428.763v306.26H30.626V91.87z"/>
	<circle cx="76.565" cy="122.542" r="15.313"/>
	<circle cx="122.825" cy="122.542" r="15.313"/>
	<circle cx="169.086" cy="122.542" r="15.313"/>
	<rect x="61.252" y="153.122" width="367.511" height="30.626"/>
</g>
</svg>